<?xml version="1.0" encoding="utf-8"?>
<!-- Generator: Adobe Illustrator 17.1.0, SVG Export Plug-In . SVG Version: 6.00 Build 0)  -->
<!DOCTYPE svg PUBLIC "-//W3C//DTD SVG 1.1//EN" "http://www.w3.org/Graphics/SVG/1.1/DTD/svg11.dtd">
<svg version="1.1" id="Layer_1" xmlns="http://www.w3.org/2000/svg" xmlns:xlink="http://www.w3.org/1999/xlink" x="0px" y="0px"
	 viewBox="0 0 24 24" enable-background="new 0 0 24 24" xml:space="preserve">
<path fill="#26A59A" d="M20,2H4C2.9,2,2,2.9,2,4v16c0,1.1,0.9,2,2,2h16c1.1,0,2-0.9,2-2V4C22,2.9,21.1,2,20,2z M6.7,15.5
	c0,0.6-0.5,1.1-1.1,1.1c-0.6,0-1.1-0.5-1.1-1.1v-5.3C4.4,9.5,4.9,9,5.6,9c0.6,0,1.1,0.5,1.1,1.1V15.5z M16.5,16.6
	c0,0.4-0.3,0.8-0.8,0.8H15V20c0,0.6-0.5,1.1-1.1,1.1c-0.6,0-1.1-0.5-1.1-1.1v-2.7h-1.5V20c0,0.6-0.5,1.1-1.1,1.1
	C9.5,21.2,9,20.7,9,20v-2.7H8.2c-0.4,0-0.8-0.3-0.8-0.8V9h9.1V16.6z M7.5,8.3c0-1.5,0.7-2.8,1.9-3.7l-1-1c-0.2-0.1-0.2-0.4,0-0.5
	c0.1-0.1,0.4-0.1,0.5,0L10,4.2c0.6-0.3,1.3-0.5,2-0.5c0.7,0,1.4,0.2,2,0.5l1.1-1.1c0.1-0.1,0.4-0.1,0.5,0c0.1,0.2,0.1,0.4,0,0.5
	l-1,1c1.1,0.8,1.9,2.2,1.9,3.7H7.5z M19.6,15.5c0,0.6-0.5,1.1-1.1,1.1c-0.6,0-1.1-0.5-1.1-1.1v-5.3c0-0.6,0.5-1.1,1.1-1.1
	c0.6,0,1.1,0.5,1.1,1.1V15.5z"/>
</svg>
