<?xml version="1.0" encoding="utf-8"?>
<!-- Generator: Adobe Illustrator 17.1.0, SVG Export Plug-In . SVG Version: 6.00 Build 0)  -->
<!DOCTYPE svg PUBLIC "-//W3C//DTD SVG 1.1//EN" "http://www.w3.org/Graphics/SVG/1.1/DTD/svg11.dtd">
<svg version="1.1" id="Layer_1" xmlns="http://www.w3.org/2000/svg" xmlns:xlink="http://www.w3.org/1999/xlink" x="0px" y="0px"
	 viewBox="0 0 24 24" enable-background="new 0 0 24 24" xml:space="preserve">
<circle fill="#448AFF" cx="12" cy="12" r="12"/>
<path fill="#FFFFFF" d="M19,14.8V6.4C19,5.6,18.4,5,17.6,5H9.2C8.4,5,7.8,5.6,7.8,6.4v8.4c0,0.8,0.6,1.4,1.4,1.4h8.4
	C18.4,16.2,19,15.6,19,14.8z M11.3,12l1.4,1.9l2.1-2.6l2.8,3.5H9.2L11.3,12z M5,7.8v9.8C5,18.4,5.6,19,6.4,19h9.8v-1.4H6.4V7.8H5z"
	/>
</svg>
