<?xml version="1.0" encoding="utf-8"?>
<!-- Generator: Adobe Illustrator 17.1.0, SVG Export Plug-In . SVG Version: 6.00 Build 0)  -->
<!DOCTYPE svg PUBLIC "-//W3C//DTD SVG 1.1//EN" "http://www.w3.org/Graphics/SVG/1.1/DTD/svg11.dtd">
<svg version="1.1" id="Layer_1" xmlns="http://www.w3.org/2000/svg" xmlns:xlink="http://www.w3.org/1999/xlink" x="0px" y="0px"
	 viewBox="0 0 24 24" enable-background="new 0 0 24 24" xml:space="preserve">
<circle fill="#448AFF" cx="12" cy="12" r="12"/>
<path fill="#FFFFFF" d="M6.1,8.5H5v2.9h0l0,5.3c0,0.6,0.5,1.2,1.2,1.2h10.5v-1.2H6.1V8.5z M17.8,7.3h-4.7L12,6.2H8.5
	c-0.6,0-1.2,0.5-1.2,1.2l0,7c0,0.6,0.5,1.2,1.2,1.2h9.3c0.6,0,1.2-0.5,1.2-1.2V8.5C19,7.9,18.5,7.3,17.8,7.3z M9.1,13.8l2.6-3.5
	l2,2.6l1.5-1.8l2,2.6H9.1z"/>
</svg>