<?xml version="1.0" encoding="utf-8"?>
<!-- Generator: Adobe Illustrator 17.1.0, SVG Export Plug-In . SVG Version: 6.00 Build 0)  -->
<!DOCTYPE svg PUBLIC "-//W3C//DTD SVG 1.1//EN" "http://www.w3.org/Graphics/SVG/1.1/DTD/svg11.dtd">
<svg version="1.1" id="Layer_1" xmlns="http://www.w3.org/2000/svg" xmlns:xlink="http://www.w3.org/1999/xlink" x="0px" y="0px"
	 viewBox="0 0 24 24" enable-background="new 0 0 24 24" xml:space="preserve">
<circle fill="#448AFF" cx="12" cy="12" r="12"/>
<path fill="#FFFFFF" d="M10.2,10.9l3.3-5.8C13,5.1,12.5,5,12,5c-1.7,0-3.2,0.6-4.4,1.6L10.2,10.9C10.1,11,10.2,10.9,10.2,10.9z
	 M18.7,9.9c-0.6-2-2.2-3.7-4.2-4.4l-2.6,4.4H18.7z M18.9,10.6h-5.2l0.2,0.4l3.3,5.8c1.1-1.2,1.8-2.9,1.8-4.7
	C19,11.5,18.9,11.1,18.9,10.6z M9.6,12L6.8,7.3C5.7,8.5,5,10.2,5,12c0,0.5,0,0.9,0.1,1.4h5.2L9.6,12z M5.3,14.1
	c0.6,2,2.2,3.7,4.2,4.4l2.6-4.4H5.3z M13.2,14.1l-2.7,4.7c0.5,0.1,1,0.2,1.5,0.2c1.7,0,3.2-0.6,4.4-1.6L13.9,13
	C13.9,13,13.2,14.1,13.2,14.1z"/>
</svg>
