<?xml version="1.0" encoding="utf-8"?>
<!-- Generator: Adobe Illustrator 17.1.0, SVG Export Plug-In . SVG Version: 6.00 Build 0)  -->
<!DOCTYPE svg PUBLIC "-//W3C//DTD SVG 1.1//EN" "http://www.w3.org/Graphics/SVG/1.1/DTD/svg11.dtd">
<svg version="1.1" id="Layer_1" xmlns="http://www.w3.org/2000/svg" xmlns:xlink="http://www.w3.org/1999/xlink" x="0px" y="0px"
	 viewBox="0 0 24 24" enable-background="new 0 0 24 24" xml:space="preserve">
<circle fill="#448AFF" cx="12" cy="12" r="12"/>
<path fill="#FFFFFF" d="M12,13.9c1.2,0,2.2-1,2.2-2.2l0-4.4C14.2,6,13.2,5,12,5S9.8,6,9.8,7.2v4.4C9.8,12.9,10.8,13.9,12,13.9z
	 M15.9,11.7c0,2.2-1.9,3.8-3.9,3.8s-3.9-1.5-3.9-3.8H6.8c0,2.5,2,4.6,4.4,5V19h1.5v-2.4c2.4-0.4,4.4-2.4,4.4-5H15.9z"/>
</svg>
